# xmcd
#
# Track frame offsets:
#	150
#	13229
#	33200
#	43766
#	56207
#	69025
#	80519
#	104999
#	117096
#	133116
#	145590
#	166079
#
# Disc length: 2383 seconds
#
# Revision: 1
# Processed by: cddbd v1.5.2PL0 Copyright (c) Steve Scherf et al.
# Submitted via: audiograbber 1.83.01
#
DISCID=a2094d0c
DTITLE=Stuart Wyrick - East Tennessee Sunrise
DYEAR=2016
DGENRE=Bluegrass
TTITLE0=Hitchhiking to California
TTITLE1=East Tennessee Sunrise
TTITLE2=Little Moonshine Johnny
TTITLE3=Stitzenburg Breakdown
TTITLE4=Walking the Floor Over You
TTITLE5=Jennifer Dale Breakdown
TTITLE6=The Lord Will Make a Way
TTITLE7=You're the One
TTITLE8=Freda Florentine
TTITLE9=When Someone Wants to Leave
TTITLE10=Riding On the Clouds
TTITLE11=Born Again
EXTD=
EXTT0=
EXTT1=
EXTT2=
EXTT3=
EXTT4=
EXTT5=
EXTT6=
EXTT7=
EXTT8=
EXTT9=
EXTT10=
EXTT11=
PLAYORDER=
